<svg width="1920" height="925" viewBox="0 0 1920 925" fill="none" xmlns="http://www.w3.org/2000/svg">
<path d="M0.596023 74.1371L-2 73.3266V76.0462V173.256C-2 174.36 -1.10457 175.256 0 175.256V365.674C-1.10457 365.674 -2 366.57 -2 367.674V562.093C-2 563.198 -1.10457 564.093 0 564.093V754.512C-1.10457 754.512 -2 755.408 -2 756.512V853.721V855.125L-0.680289 855.602L0 853.721C-0.680289 855.602 -0.67989 855.602 -0.679329 855.603L-0.67739 855.603L-0.670578 855.606L-0.645221 855.615L-0.547644 855.65C-0.461792 855.68 -0.33437 855.726 -0.165587 855.785C0.17198 855.904 0.674996 856.08 1.3418 856.309C2.67542 856.767 4.66421 857.438 7.29494 858.292C12.5564 860.001 20.3856 862.445 30.6767 865.392C51.2587 871.285 81.6884 879.191 121.118 887.253C122.2 887.474 123.257 886.777 123.478 885.694C123.478 885.694 123.478 885.693 123.478 885.693C184.812 898.148 267.614 910.908 368.753 917.122C368.753 917.123 368.753 917.123 368.753 917.123C368.686 918.226 369.526 919.174 370.629 919.24C409.902 921.614 451.919 923 496.5 923C535.04 923 573.763 921.038 612.501 917.581C613.602 917.483 614.414 916.511 614.316 915.411C614.316 915.411 614.316 915.41 614.316 915.41C689.749 908.579 765.269 896.098 839.659 881.411C839.659 881.411 839.659 881.411 839.659 881.411C839.874 882.495 840.926 883.199 842.01 882.985C899.071 871.686 955.471 859.104 1010.62 846.8C1030.17 842.439 1049.56 838.114 1068.77 833.892C1069.85 833.655 1070.53 832.589 1070.29 831.51C1148.52 814.336 1223.78 798.917 1294.43 789.924C1294.57 791.019 1295.57 791.795 1296.66 791.657C1336.73 786.62 1375.27 783.675 1412 783.675C1456.87 783.675 1499.87 785.35 1540.51 788.188C1541.61 788.265 1542.56 787.435 1542.64 786.334C1643.1 793.457 1729.09 807.659 1793.51 821.196C1793.28 822.277 1793.97 823.337 1795.05 823.566C1834.32 831.865 1865.41 839.883 1886.68 845.823C1897.31 848.793 1905.49 851.244 1911.01 852.951C1913.76 853.805 1915.86 854.472 1917.26 854.926C1917.96 855.153 1918.49 855.326 1918.84 855.442L1919.06 855.517L1919.23 855.573L1919.33 855.606L1919.35 855.614L1919.36 855.616L1919.36 855.617L1922 856.507V853.721V756.512C1922 755.408 1921.1 754.512 1920 754.512V564.093C1921.1 564.093 1922 563.198 1922 562.093V367.674C1922 366.57 1921.1 365.674 1920 365.674V175.256C1921.1 175.256 1922 174.36 1922 173.256V76.0462V74.6618L1920.7 74.1743L1920 76.0462C1920.7 74.1743 1920.7 74.1742 1920.7 74.1739L1920.7 74.1732L1920.69 74.1706L1920.67 74.1609L1920.57 74.1237C1920.48 74.091 1920.35 74.0427 1920.18 73.9793C1919.83 73.8525 1919.32 73.6652 1918.63 73.4213C1917.27 72.9333 1915.23 72.2187 1912.54 71.3082C1907.16 69.4872 1899.15 66.8827 1888.63 63.7411C1867.59 57.4578 1836.51 49.0259 1796.29 40.4164C1795.21 40.1851 1794.15 40.8733 1793.92 41.9534C1793.92 41.9538 1793.92 41.9543 1793.92 41.9547C1731.07 28.5915 1646.23 14.8728 1542.8 8.18276C1542.8 8.18242 1542.8 8.18209 1542.8 8.18175C1542.87 7.07941 1542.03 6.1289 1540.93 6.05873C1500.68 3.49659 1457.64 2 1412 2C1372.7 2 1334.09 4.17116 1295.96 7.97054C1294.86 8.08007 1294.06 9.05988 1294.17 10.159C1294.17 10.1595 1294.17 10.16 1294.17 10.1605C1217.9 17.8778 1143.53 32.0916 1069.47 48.45C1069.23 47.3716 1068.16 46.6909 1067.08 46.9296C1032.96 54.4843 998.975 62.4674 964.911 70.4691C923.817 80.1218 882.608 89.8018 840.901 98.7898C839.821 99.0224 839.134 100.086 839.367 101.166C766.144 116.901 691.641 130.406 614.376 137.652C614.273 136.553 613.3 135.745 612.2 135.846C574.352 139.341 535.844 141.325 496.5 141.325C452.934 141.325 410.943 139.706 371.086 136.97C369.984 136.894 369.03 137.726 368.954 138.827C271.777 132.055 187.391 118.678 123.941 106.006C124.158 104.924 123.457 103.87 122.374 103.653C84.1817 95.9818 53.7242 88.5989 32.8206 83.1355C22.3689 80.4038 14.3061 78.1521 8.85941 76.5844C6.1361 75.8005 4.06686 75.1876 2.68015 74.7712C1.98679 74.5631 1.46406 74.404 1.11553 74.2972C0.941255 74.2439 0.810532 74.2036 0.723801 74.1767L0.626752 74.1467L0.603077 74.1393L0.59747 74.1375L0.596226 74.1372C0.596049 74.1371 0.596026 74.1371 0.104915 75.7102C0.0721747 75.815 0.0372514 75.9269 0 76.0462L0.596023 74.1371Z" stroke="#FFDA47" stroke-width="4" stroke-linecap="round" stroke-dasharray="200 200"/>
</svg>
