<svg width="1284" height="1004" viewBox="0 0 1284 1004" fill="none" xmlns="http://www.w3.org/2000/svg">
<path d="M2 -2L1.354 1.89065C1.35333 1.89257 1.35332 1.89256 1.35331 1.89256L1.35366 1.89268L1.3537 1.8927L1.35675 1.89374L1.37184 1.89894L1.43796 1.92187C1.49795 1.94278 1.58972 1.97497 1.71292 2.01876C1.95933 2.10636 2.33145 2.2404 2.82651 2.42347C3.81661 2.78963 5.29842 3.35196 7.24961 4.13131C11.152 5.69002 16.9318 8.11681 24.4105 11.5785C39.3677 18.5018 61.1204 29.5648 88.239 46.1018C89.1814 46.6764 90.4109 46.379 90.9866 45.4376C131.759 70.439 184.339 107.627 244.018 161.397C243.279 162.216 243.343 163.48 244.162 164.22C266.649 184.544 290.138 207.224 314.379 232.494C332.788 257.171 348.226 280.346 361.109 302.224C361.669 303.175 362.893 303.493 363.844 302.935C398.293 361.868 414.278 411.493 419.867 455.771C418.773 455.905 417.994 456.899 418.125 457.994C424.84 514.108 414.836 561.593 404.836 609.062C403.813 613.919 402.79 618.775 401.785 623.641C401.561 624.723 402.257 625.781 403.339 626.004C403.339 626.004 403.339 626.005 403.34 626.005C393.029 676.205 384.999 727.085 399.238 788.464C399.236 788.465 399.234 788.465 399.232 788.466C398.158 788.722 397.495 789.801 397.751 790.875C403.612 815.415 413.011 841.599 427.176 870.032C443.97 903.743 471.617 929.576 506.787 949.045C507.754 949.58 508.971 949.231 509.506 948.264C509.507 948.262 509.508 948.26 509.509 948.258C565.858 978.894 641.564 993.551 723.641 998.249C723.641 998.25 723.641 998.25 723.641 998.251C723.58 999.354 724.425 1000.3 725.528 1000.36C798.848 1004.41 877.11 1000.58 951.123 993.148C952.222 993.038 953.024 992.057 952.914 990.958C952.914 990.958 952.913 990.957 952.913 990.957C1035.63 982.572 1112.97 969.714 1172.07 958.351C1172.28 959.436 1173.33 960.145 1174.41 959.936C1207.91 953.47 1235.42 947.513 1254.56 943.171C1264.13 941 1271.61 939.233 1276.7 938.009C1279.24 937.396 1281.19 936.919 1282.5 936.596C1283.16 936.434 1283.65 936.31 1283.99 936.226L1284.36 936.132L1284.46 936.108L1284.48 936.102L1284.49 936.1L1284.49 936.1C1284.49 936.1 1284.49 936.1 1284 934.161L1284.49 936.1L1286 935.718V934.161V850.409C1286 849.304 1285.1 848.409 1284 848.409V684.905C1285.1 684.905 1286 684.01 1286 682.905V515.401C1286 514.297 1285.1 513.401 1284 513.401V349.897C1285.1 349.897 1286 349.002 1286 347.897V264.146V198.109C1286 197.005 1285.1 196.109 1284 196.109V68.0364C1285.1 68.0364 1286 67.1409 1286 66.0364V0V-2H1284H1177.17C1176.06 -2 1175.17 -1.10457 1175.17 0H965.5C965.5 -1.10457 964.605 -2 963.5 -2H749.833C748.729 -2 747.833 -1.10457 747.833 0H538.167C538.167 -1.10457 537.271 -2 536.167 -2H322.5C321.395 -2 320.5 -1.10457 320.5 0H110.833C110.833 -1.10457 109.938 -2 108.833 -2H2Z" stroke="#FFDA47" stroke-width="4" stroke-linecap="round" stroke-dasharray="200 200"/>
</svg>
