<svg width="40" height="40" viewBox="0 0 40 40" fill="none" xmlns="http://www.w3.org/2000/svg">
<path d="M20.0007 13.4175C16.371 13.4175 13.418 16.3705 13.418 20.0002C13.418 23.6299 16.3709 26.5829 20.0007 26.5829C23.6304 26.5829 26.5834 23.6299 26.5834 20.0001C26.5834 16.3704 23.6304 13.4175 20.0007 13.4175ZM20.0007 25.1656C17.1525 25.1656 14.8352 22.8484 14.8352 20.0001C14.8352 17.1519 17.1525 14.8347 20.0007 14.8347C22.8489 14.8347 25.1662 17.152 25.1662 20.0002C25.1662 22.8484 22.8489 25.1656 20.0007 25.1656Z" fill="white"/>
<path d="M26.9765 11.0234C25.8737 11.0234 24.9766 11.9207 24.9766 13.0235C24.9766 14.1262 25.8737 15.0234 26.9765 15.0234C28.0793 15.0234 28.9765 14.1262 28.9765 13.0234C28.9765 11.9206 28.0793 11.0234 26.9765 11.0234ZM26.9765 13.6061C26.6553 13.6061 26.3939 13.3447 26.3939 13.0234C26.3939 12.7021 26.6553 12.4408 26.9765 12.4408C27.2978 12.4408 27.5592 12.7022 27.5592 13.0234C27.5592 13.3446 27.2978 13.6061 26.9765 13.6061Z" fill="white"/>
<path d="M25.4208 8H14.5792C10.9514 8 8 10.9514 8 14.5793V25.4208C8 29.0486 10.9514 32 14.5792 32H25.4208C29.0486 32 32 29.0486 32 25.4208V14.5793C32 10.9514 29.0486 8 25.4208 8ZM30.5827 25.4208C30.5827 28.2671 28.2671 30.5827 25.4208 30.5827H14.5792C11.7329 30.5827 9.41731 28.2671 9.41731 25.4208V14.5793C9.41731 11.7329 11.7329 9.41731 14.5792 9.41731H25.4208C28.2671 9.41731 30.5827 11.7329 30.5827 14.5793V25.4208Z" fill="white"/>
<circle cx="20" cy="20" r="19" stroke="white" stroke-width="2"/>
</svg>
