<svg width="40" height="40" viewBox="0 0 40 40" fill="none" xmlns="http://www.w3.org/2000/svg">
<circle cx="20" cy="20" r="19" stroke="white" stroke-width="2"/>
<g clip-path="url(#clip0_77_1284)">
<path d="M29.6326 11.5797C29.3396 11.2201 28.9 11.022 28.3945 11.022C28.1217 11.022 27.8328 11.0791 27.5357 11.1916L7.21672 18.8902C6.13636 19.2996 5.99095 19.9159 6.00041 20.2468C6.00984 20.5761 6.18848 21.1786 7.27593 21.5264L11.5851 23.1056L13.8561 28.3041C14.0844 29.0231 14.5614 29.5275 15.1703 29.6911C15.3106 29.7288 15.4539 29.7474 15.5982 29.7474C16.0927 29.7474 16.599 29.5296 17.0362 29.119L18.9177 27.3512L23.5086 30.5111C23.922 30.8167 24.3719 30.978 24.8106 30.978C25.701 30.9779 26.4111 30.3261 26.6198 29.3174L29.9429 13.2451C30.0794 12.5846 29.9692 11.9932 29.6326 11.5797ZM13.0132 22.8616L18.877 19.717L14.7903 23.4657C14.6448 23.5992 14.5638 23.7872 14.5635 23.9832C14.5632 23.9904 14.5624 23.9974 14.5623 24.0046L14.5482 26.3753L13.0132 22.8616ZM16.0733 28.094C16.03 28.1347 15.9865 28.1705 15.9436 28.2017L15.9608 25.3159L17.7323 26.5353L16.0733 28.094ZM28.5657 12.9604L25.2426 29.0326C25.2091 29.1947 25.0999 29.5717 24.8105 29.5717C24.6754 29.5717 24.5077 29.5021 24.3385 29.3757C24.3312 29.3703 24.3239 29.365 24.3164 29.3599L19.2552 25.8763C19.2545 25.8758 19.2538 25.8753 19.2531 25.8749L16.3916 23.9052L23.9507 16.9714C24.2119 16.7318 24.2539 16.3353 24.0488 16.0463C23.8436 15.7572 23.4554 15.6661 23.143 15.8336L12.0546 21.7799L7.7454 20.2008C7.74226 20.1996 7.73912 20.1985 7.73593 20.1973L28.034 12.5067C28.205 12.4419 28.3244 12.4283 28.3945 12.4283C28.4292 12.4283 28.5131 12.4321 28.5421 12.4677C28.5793 12.5134 28.626 12.6685 28.5657 12.9604Z" fill="white"/>
</g>
<defs>
<clipPath id="clip0_77_1284">
<rect width="24" height="24" fill="white" transform="translate(6 9)"/>
</clipPath>
</defs>
</svg>
