<svg width="30" height="30" viewBox="0 0 30 30" fill="none" xmlns="http://www.w3.org/2000/svg">
<path d="M19.4393 16.2451L16.9267 18.7662C15.9078 19.7886 14.1151 19.8107 13.0742 18.7662L10.5615 16.2451L1.53711 25.2988C1.87303 25.4541 2.2434 25.5468 2.63715 25.5468H27.3637C27.7575 25.5468 28.1277 25.4542 28.4635 25.2988L19.4393 16.2451Z" fill="white"/>
<path d="M27.3636 4.45312H2.63703C2.24328 4.45312 1.87291 4.54582 1.53711 4.70115L11.1803 14.3763C11.1809 14.377 11.1817 14.3771 11.1823 14.3777C11.183 14.3784 11.1831 14.3793 11.1831 14.3793L14.3186 17.5252C14.6517 17.8582 15.3491 17.8582 15.6821 17.5252L18.817 14.3798C18.817 14.3798 18.8178 14.3784 18.8184 14.3777C18.8184 14.3777 18.8198 14.377 18.8204 14.3763L28.4634 4.70109C28.1276 4.5457 27.7573 4.45312 27.3636 4.45312Z" fill="white"/>
<path d="M0.28043 5.93042C0.106641 6.28187 0 6.67198 0 7.08987V22.9102C0 23.3281 0.106523 23.7182 0.280371 24.0696L9.32039 15.0003L0.28043 5.93042Z" fill="white"/>
<path d="M29.7196 5.93018L20.6797 15.0002L29.7196 24.0696C29.8934 23.7182 30 23.3281 30 22.9101V7.08975C30 6.67174 29.8934 6.28162 29.7196 5.93018Z" fill="white"/>
</svg>
