<svg width="30" height="30" viewBox="0 0 30 30" fill="none" xmlns="http://www.w3.org/2000/svg">
<path d="M22.8077 19.8455C21.8276 18.8779 20.604 18.8779 19.6301 19.8455C18.8872 20.5821 18.1443 21.3188 17.4139 22.0679C17.2142 22.2739 17.0456 22.3176 16.8022 22.1803C16.3215 21.9181 15.8096 21.7058 15.3476 21.4187C13.1939 20.064 11.3897 18.3223 9.79159 16.3621C8.99877 15.3882 8.29334 14.3457 7.80017 13.172C7.70028 12.9348 7.71901 12.7787 7.91253 12.5852C8.65542 11.8673 9.37957 11.1307 10.11 10.394C11.1275 9.37021 11.1275 8.17161 10.1037 7.14156C9.52316 6.55475 8.94258 5.98042 8.36201 5.3936C7.76271 4.7943 7.16965 4.18876 6.56411 3.5957C5.584 2.64056 4.36043 2.64056 3.38657 3.60194C2.63744 4.33858 1.91953 5.09395 1.15792 5.81811C0.452489 6.48608 0.0966536 7.30387 0.021741 8.25901C-0.0968706 9.81345 0.283935 11.2805 0.820809 12.7101C1.91953 15.6691 3.59258 18.2973 5.62146 20.707C8.36201 23.9657 11.6332 26.5439 15.46 28.4043C17.183 29.2408 18.9684 29.8838 20.9099 29.9899C22.2458 30.0648 23.407 29.7277 24.3371 28.6852C24.9739 27.9735 25.6918 27.3243 26.366 26.6438C27.3648 25.6325 27.3711 24.4089 26.3785 23.4101C25.1924 22.2177 24 21.0316 22.8077 19.8455Z" fill="white"/>
<path d="M21.6148 14.8701L23.9183 14.4768C23.5562 12.3605 22.5574 10.444 21.0404 8.92075C19.4361 7.31638 17.4072 6.30506 15.1723 5.99292L14.8477 8.30897C16.5769 8.55243 18.1501 9.33277 19.3924 10.5751C20.566 11.7487 21.3338 13.2345 21.6148 14.8701Z" fill="white"/>
<path d="M25.2176 4.85683C22.5582 2.19744 19.1933 0.518146 15.4789 0L15.1543 2.31605C18.3631 2.76552 21.2722 4.22008 23.5695 6.51115C25.7482 8.68986 27.1778 11.4429 27.6959 14.4706L29.9995 14.0773C29.3939 10.5689 27.7396 7.38513 25.2176 4.85683Z" fill="white"/>
</svg>
