<svg width="24" height="24" viewBox="0 0 24 24" fill="none" xmlns="http://www.w3.org/2000/svg">

<path d="M23.6326 2.57971C23.3396 2.22007 22.9 2.02197 22.3945 2.02197C22.1217 2.02197 21.8328 2.07907 21.5357 2.19162L1.21672 9.89019C0.136357 10.2996 -0.00905496 10.9159 0.000414145 11.2468C0.00983637 11.5761 0.188484 12.1786 1.27593 12.5264L5.58507 14.1056L7.85611 19.3041C8.0844 20.0231 8.56142 20.5275 9.17025 20.6911C9.3106 20.7288 9.45391 20.7474 9.59824 20.7474C10.0927 20.7474 10.599 20.5296 11.0362 20.119L12.9177 18.3512L17.5086 21.5111C17.922 21.8167 18.3719 21.978 18.8106 21.978C19.701 21.9779 20.4111 21.3261 20.6198 20.3174L23.9429 4.24515C24.0794 3.58461 23.9692 2.99316 23.6326 2.57971ZM7.01317 13.8616L12.877 10.717L8.79032 14.4657C8.64481 14.5992 8.56376 14.7872 8.56353 14.9832C8.56325 14.9904 8.56236 14.9974 8.56231 15.0046L8.5482 17.3753L7.01317 13.8616ZM10.0733 19.094C10.03 19.1347 9.98652 19.1705 9.94358 19.2017L9.96078 16.3159L11.7323 17.5353L10.0733 19.094ZM22.5657 3.96037L19.2426 20.0326C19.2091 20.1947 19.0999 20.5717 18.8105 20.5717C18.6754 20.5717 18.5077 20.5021 18.3385 20.3757C18.3312 20.3703 18.3239 20.365 18.3164 20.3599L13.2552 16.8763C13.2545 16.8758 13.2538 16.8753 13.2531 16.8749L10.3916 14.9052L17.9507 7.97143C18.2119 7.73184 18.2539 7.33531 18.0488 7.04627C17.8436 6.75723 17.4554 6.6661 17.143 6.83359L6.05464 12.7799L1.7454 11.2008C1.74226 11.1996 1.73912 11.1985 1.73593 11.1973L22.034 3.5067C22.205 3.44187 22.3244 3.42827 22.3945 3.42827C22.4292 3.42827 22.5131 3.43212 22.5421 3.46774C22.5793 3.51336 22.626 3.66847 22.5657 3.96037Z" fill="white"/>


</svg>
